<svg xmlns="http://www.w3.org/2000/svg" xmlns:xlink="http://www.w3.org/1999/xlink" width="112.15242767333984" height="19.673807859420776" viewBox="100.14958953857422 50.535306215286255 112.15242767333984 19.673807859420776"><g><path d="M 98.55271911621094 13.87800121307373 C 96.92150115966797 13.87800121307373 95.63022613525391 14.4503345489502 94.80502319335938 15.86772537231445 C 94.53421783447266 16.33378601074219 94.05791473388672 16.64299964904785 93.51887512207031 16.64299964904785 L 93.48365783691406 16.64299964904785 L 93.48365783691406 14.25251388549805 L 91.06501007080078 14.25251388549805 L 91.06501007080078 29.11270141601562 L 93.48365783691406 29.11270141601562 L 93.48365783691406 18.45730972290039 C 94.03102111816406 18.45730972290039 94.51885223388672 18.14425277709961 94.77941131591797 17.66346740722656 C 95.17441558837891 16.93684959411621 95.99769592285156 16.06682586669922 98.09178161621094 16.06682586669922 C 100.7991561889648 16.06682586669922 100.9432067871094 17.85232543945312 100.9432067871094 19.14808082580566 L 100.9432067871094 29.11270141601562 L 103.3618621826172 29.11270141601562 L 103.3618621826172 19.43616676330566 C 103.3618621826172 15.20320224761963 101.2018432617188 13.87800121307373 98.55271911621094 13.87800121307373" transform="matrix(1,0,0,1,15.234291076660156,40.75070762634277)" fill="currentColor" fill-rule="evenodd"/><path d="M 122.7043762207031 14.41710090637207 L 118.7300491333008 27.14672660827637 L 117.7793579101562 27.14672660827637 L 113.8050308227539 14.41710090637207 L 111.1271057128906 14.41710090637207 L 116.0226669311523 29.30610084533691 L 120.4003143310547 29.30610084533691 L 125.2958755493164 14.41710090637207 L 122.7043762207031 14.41710090637207 Z" transform="matrix(1,0,0,1,8.015838623046875,40.556737422943115)" fill="currentColor" fill-rule="evenodd"/><path d="M 140.4576263427734 13.87800121307373 C 137.5780181884766 13.87800121307373 133.2579956054688 15.69231033325195 133.2579956054688 21.68197059631348 C 133.2579956054688 27.64345932006836 137.5780181884766 29.45840644836426 140.4576263427734 29.45840644836426 C 143.3372192382812 29.45840644836426 147.6860504150391 27.64345932006836 147.6860504150391 21.68197059631348 C 147.6860504150391 15.69231033325195 143.3372192382812 13.87800121307373 140.4576263427734 13.87800121307373 M 140.4576263427734 27.29775428771973 C 137.5780181884766 27.29775428771973 135.6766510009766 25.08075904846191 135.6766510009766 21.68197059631348 C 135.6766510009766 18.25500679016113 137.5780181884766 16.03737449645996 140.4576263427734 16.03737449645996 C 143.3372192382812 16.03737449645996 145.2385864257812 18.25500679016113 145.2385864257812 21.68197059631348 C 145.2385864257812 25.08075904846191 143.3372192382812 27.29775428771973 140.4576263427734 27.29775428771973" transform="matrix(1,0,0,1,0.05301666259765625,40.75070762634277)" fill="currentColor" fill-rule="evenodd"/><path d="M 164.0879211425781 27.29775428771973 C 161.2083129882812 27.29775428771973 159.6532897949219 25.08075904846191 159.6532897949219 21.68197059631348 C 159.6532897949219 18.25500679016113 161.4093322753906 16.03737449645996 164.0879211425781 16.03737449645996 C 166.3919830322266 16.03737449645996 167.7453460693359 17.16091537475586 168.1192016601562 19.03284454345703 L 170.6537628173828 19.03284454345703 C 170.1646423339844 15.26018047332764 167.3708343505859 13.87800121307373 164.0879211425781 13.87800121307373 C 160.3728637695312 13.87800121307373 157.2339935302734 16.44069671630859 157.2339935302734 21.68197059631348 C 157.2339935302734 26.43413162231445 159.9119415283203 29.45840644836426 164.0879211425781 29.45840644836426 C 167.4572601318359 29.45840644836426 170.3374938964844 27.15371131896973 170.7977905273438 23.66913032531738 L 168.2927093505859 23.66913032531738 C 168.0622406005859 25.48408317565918 166.6794281005859 27.29775428771973 164.0879211425781 27.29775428771973" transform="matrix(1,0,0,1,-8.573680877685547,40.75070762634277)" fill="currentColor" fill-rule="evenodd"/><rect x="0" y="0" width="2.4474616050720215" height="18.833877563476562" transform="matrix(1,0,0,1,163.95136260986328,51.02921676635742)" fill="currentColor" fill-rule="evenodd"/><path d="M 195.0196228027344 13.87800121307373 C 192.1400146484375 13.87800121307373 187.8200073242188 15.69231033325195 187.8200073242188 21.68197059631348 C 187.8200073242188 27.64345932006836 192.1400146484375 29.45840644836426 195.0196228027344 29.45840644836426 C 197.8998565673828 29.45840644836426 202.248046875 27.64345932006836 202.248046875 21.68197059631348 C 202.248046875 15.69231033325195 197.8998565673828 13.87800121307373 195.0196228027344 13.87800121307373 M 195.0196228027344 27.29775428771973 C 192.1400146484375 27.29775428771973 190.2392883300781 25.08075904846191 190.2392883300781 21.68197059631348 C 190.2392883300781 18.25500679016113 192.1400146484375 16.03737449645996 195.0196228027344 16.03737449645996 C 197.8998565673828 16.03737449645996 199.8005828857422 18.25500679016113 199.8005828857422 21.68197059631348 C 199.8005828857422 25.08075904846191 197.8998565673828 27.29775428771973 195.0196228027344 27.29775428771973" transform="matrix(1,0,0,1,-19.578704833984375,40.75070762634277)" fill="currentColor" fill-rule="evenodd"/><path d="M 222.5291900634766 25.07303619384766 C 221.9818420410156 25.07303619384766 221.4940032958984 25.3860912322998 221.2328186035156 25.86687278747559 C 220.8384552001953 26.5934944152832 220.0145263671875 27.46352195739746 217.9210968017578 27.46352195739746 C 215.2137145996094 27.46352195739746 215.0702972412109 25.6773796081543 215.0702972412109 24.38162612915039 L 215.0702972412109 14.41699981689453 L 212.6510162353516 14.41699981689453 L 212.6510162353516 24.09353446960449 C 212.6510162353516 28.32714080810547 214.8103637695312 29.65170478820801 217.4601440429688 29.65170478820801 C 219.0907135009766 29.65170478820801 220.3820037841797 29.07937049865723 221.2071990966797 27.66262054443359 C 221.4786529541016 27.19655990600586 221.9549560546875 26.88734436035156 222.4940032958984 26.88734436035156 L 222.5291900634766 26.88734436035156 L 222.5291900634766 29.30599975585938 L 224.9485015869141 29.30599975585938 L 224.9485015869141 14.41699981689453 L 222.5291900634766 14.41699981689453 L 222.5291900634766 25.07303619384766 Z" transform="matrix(1,0,0,1,-28.513046264648438,40.55677318572998)" fill="currentColor" fill-rule="evenodd"/><path d="M 246.3136138916016 8.255000114440918 L 246.3136138916016 14.61917114257812 C 245.8014678955078 14.61917114257812 245.3264465332031 14.3592529296875 245.0543518066406 13.92520141601562 C 244.3667907714844 12.82918834686279 242.9826965332031 11.82600402832031 241.2451934814453 11.82600402832031 C 237.4437255859375 11.82600402832031 234.7369995117188 14.53274536132812 234.7369995117188 19.65878105163574 C 234.7369995117188 24.72783851623535 237.4437255859375 27.4345817565918 241.2451934814453 27.4345817565918 C 242.9826965332031 27.4345817565918 244.3667907714844 26.43139457702637 245.0543518066406 25.33538436889648 C 245.3264465332031 24.90133285522461 245.8014678955078 24.64141273498535 246.3136138916016 24.64141273498535 L 246.3136138916016 27.08887672424316 L 248.76171875 27.08887672424316 L 248.76171875 8.255000114440918 L 246.3136138916016 8.255000114440918 Z M 246.3136138916016 22.85591125488281 L 246.2592010498047 22.85591125488281 C 245.7560119628906 22.85591125488281 245.2829284667969 23.10622596740723 245.0114593505859 23.53003692626953 C 244.4135284423828 24.46408081054688 243.5063781738281 25.27456474304199 241.6190948486328 25.27456474304199 C 239.402099609375 25.27456474304199 237.3572998046875 23.54668045043945 237.3572998046875 19.65878105163574 C 237.3572998046875 15.71390342712402 239.402099609375 13.98537921905518 241.6190948486328 13.98537921905518 C 243.5063781738281 13.98537921905518 244.4135284423828 14.79586505889893 245.0114593505859 15.73054695129395 C 245.2829284667969 16.15435600280762 245.7560119628906 16.4046745300293 246.2592010498047 16.4046745300293 L 246.3136138916016 16.4046745300293 L 246.3136138916016 22.85591125488281 Z" transform="matrix(1,0,0,1,-36.45970153808594,42.77389574050903)" fill="currentColor" fill-rule="evenodd"/><path d="M 84.48775482177734 10.29189205169678 C 84.6875 10.02173042297363 84.86932373046875 9.573594093322754 84.86932373046875 9.188838005065918 C 84.86932373046875 8.247751235961914 84.10556793212891 7.484000205993652 83.16447448730469 7.484000205993652 C 82.22274780273438 7.484000205993652 81.45899963378906 8.247751235961914 81.45899963378906 9.188838005065918 C 81.45899963378906 10.1305627822876 82.22274780273438 10.89431476593018 83.16447448730469 10.89431476593018 C 83.20929718017578 10.89431476593018 83.32452392578125 10.89175415039062 83.43080139160156 10.88535213470459 C 83.67023468017578 10.87062835693359 83.89110565185547 11.00890922546387 83.92887115478516 11.24642181396484 C 83.96663665771484 11.4832935333252 83.86933135986328 11.68431568145752 83.61518096923828 11.75857734680176 C 82.96537780761719 11.9467945098877 82.43657684326172 11.631178855896 82.42697906494141 11.92310810089111 L 82.42569732666016 11.92310810089111 L 82.42569732666016 11.92886924743652 L 82.42569732666016 13.28480052947998 L 82.42569732666016 26.81210708618164 L 84.87315368652344 26.81210708618164 L 84.87315368652344 13.28480052947998 L 84.87380218505859 13.28480052947998 L 84.87380218505859 11.69327831268311 C 84.87380218505859 11.69327831268311 84.91220855712891 11.26434707641602 84.54729461669922 10.90391826629639 C 84.37636566162109 10.73554706573486 84.34500122070312 10.48523044586182 84.48775482177734 10.29189205169678" transform="matrix(1,0,0,1,18.690589904785156,43.0513060092926)" fill="currentColor" fill-rule="evenodd"/></g></svg>