<svg xmlns="http://www.w3.org/2000/svg" xmlns:xlink="http://www.w3.org/1999/xlink" width="43.12011085194126" height="29.256156535217276" viewBox="0.0001281511014042669 -0.0002351284294582756 43.12011085194126 29.256156535217276"><path d="M 40.98083114624023 26.8670825958252 C 39.50006484985352 28.40739059448242 37.40470504760742 29.25564956665039 35.08080291748047 29.25564956665039 L 7.487785339355469 29.25628852844238 C 5.446845531463623 29.25628852844238 3.4283127784729 28.3068790435791 1.94882345199585 26.65133666992188 C -0.6606084108352661 23.73077011108398 -0.6478044986724854 19.16618537902832 1.978272438049316 16.25970268249512 C 3.384779691696167 14.70275020599365 5.3072829246521 13.79111385345459 7.392395973205566 13.69124317169189 C 7.519794940948486 13.68548202514648 7.647193431854248 13.68228054046631 7.77459192276001 13.68228054046631 C 9.723984718322754 13.68228054046631 11.57286548614502 14.39737796783447 13.01778316497803 15.71809768676758 C 13.07924270629883 15.77379417419434 13.14390277862549 15.82372856140137 13.20984268188477 15.87046432495117 C 13.24313259124756 15.90439510345459 13.27450275421143 15.94024562835693 13.30843257904053 15.97417449951172 C 15.52094268798828 18.1860466003418 18.5336971282959 19.40817832946777 21.62839698791504 19.40817832946777 C 22.24298286437988 19.40817832946777 22.86141014099121 19.36016273498535 23.47727966308594 19.26157379150391 C 24.54896354675293 19.09064102172852 25.2794246673584 18.08297538757324 25.10849380493164 17.01129150390625 C 24.93692016601562 15.93896484375 23.92925262451172 15.20914268493652 22.85756874084473 15.37943458557129 C 20.38321876525879 15.77443504333496 17.85189056396484 14.95754718780518 16.08815383911133 13.19445323944092 C 14.89227199554443 11.99792861938477 14.13236331939697 10.48258972167969 13.88652801513672 8.839850425720215 C 13.88140678405762 8.800798416137695 13.87628364562988 8.761107444763184 13.87180328369141 8.721414566040039 C 13.86348056793213 8.663156509399414 13.85643768310547 8.604259490966797 13.85003757476807 8.545360565185547 C 13.61636543273926 6.248983860015869 14.41148662567139 3.878344535827637 16.20979118347168 2.145978689193726 C 19.15276527404785 -0.6888015866279602 23.96702766418457 -0.7188907265663147 26.94264793395996 2.079398393630981 C 29.92339706420898 4.882169246673584 30.22748756408691 9.547266006469727 27.63470077514648 12.69894218444824 C 26.99130439758301 13.4812593460083 27.04764175415039 14.62464618682861 27.7646598815918 15.33974361419678 C 28.4823169708252 16.05484008789062 29.62506675720215 16.10797500610352 30.40545845031738 15.46266078948975 C 33.55649948120117 12.85643005371094 38.22671508789062 13.1515588760376 41.03716659545898 16.13614463806152 C 43.83673858642578 19.10856628417969 43.81112670898438 23.92218780517578 40.98083114624023 26.8670825958252" transform="matrix(1,0,0,1,-0.00007202543201856315,-0.0003671216545626521)" fill="currentColor" fill-rule="evenodd"/></svg>