<?xml version="1.0" encoding="UTF-8"?>
<svg id="invocloud" xmlns="http://www.w3.org/2000/svg" version="1.1" viewBox="0 0 128 128" fill="currentColor">
  <path d="M112.76,94.73c-3.72,3.87-8.98,6-14.81,6H28.67c-5.12,0-10.19-2.38-13.91-6.54h0c-6.55-7.33-6.52-18.79.07-26.09,3.53-3.91,8.36-6.2,13.59-6.45.32-.02.64-.02.96-.02,4.89,0,9.54,1.8,13.16,5.11.15.14.32.27.48.38.08.09.16.18.25.26,5.56,5.55,13.12,8.62,20.89,8.62,1.54,0,3.1-.12,4.64-.37,2.69-.43,4.53-2.96,4.1-5.65-.43-2.69-2.96-4.52-5.65-4.1-6.21.99-12.57-1.06-17-5.49-3-3-4.91-6.81-5.53-10.93-.01-.1-.03-.2-.04-.3-.02-.15-.04-.29-.05-.44-.59-5.77,1.41-11.72,5.93-16.07,7.39-7.12,19.48-7.19,26.95-.17,7.48,7.04,8.25,18.75,1.74,26.66-1.62,1.96-1.47,4.83.33,6.63,1.8,1.8,4.67,1.93,6.63.31,7.91-6.54,19.64-5.8,26.69,1.69,7.03,7.46,6.96,19.55-.14,26.94Z"/>
</svg>